<?xml version="1.0" standalone="no"?>
<!DOCTYPE svg PUBLIC "-//W3C//DTD SVG 20010904//EN"
 "http://www.w3.org/TR/2001/REC-SVG-20010904/DTD/svg10.dtd">
<svg version="1.0" xmlns="http://www.w3.org/2000/svg"
 width="270.000000pt" height="270.000000pt" viewBox="0 0 270.000000 270.000000"
 preserveAspectRatio="xMidYMid meet">
<metadata>
Created by potrace 1.11, written by Peter Selinger 2001-2013
</metadata>
<g transform="translate(0.000000,270.000000) scale(0.100000,-0.100000)"
fill="#000000" stroke="none">
<path d="M1191 2689 c-288 -31 -560 -160 -779 -373 -590 -570 -534 -1538 118
-2035 399 -304 907 -365 1367 -162 682 300 989 1107 680 1786 -73 161 -164
290 -289 411 -298 289 -675 417 -1097 373z m371 -58 c476 -82 875 -423 1021
-876 48 -147 62 -238 62 -405 0 -110 -5 -180 -18 -240 -57 -272 -173 -487
-367 -680 -186 -187 -392 -297 -665 -356 -111 -24 -379 -24 -490 0 -262 57
-472 166 -652 339 -195 188 -323 422 -380 697 -25 118 -25 364 0 480 55 259
164 472 332 649 303 316 736 463 1157 392z"/>
<path d="M1189 2540 c-101 -16 -219 -50 -309 -89 -645 -278 -916 -1040 -589
-1658 67 -128 136 -219 232 -309 186 -172 403 -279 650 -319 347 -56 725 61
992 308 l60 56 -122 1 -121 0 -27 32 c-15 18 -74 128 -131 245 -62 128 -117
228 -140 252 l-36 41 -99 0 -99 0 0 -224 c0 -255 -10 -230 98 -241 l62 -7 0
-49 0 -49 -255 0 -255 0 0 49 0 48 53 7 c28 4 62 10 75 13 l22 5 0 529 0 528
-37 6 c-21 4 -45 9 -54 11 -14 4 -17 -29 -22 -308 -9 -429 -23 -485 -148 -611
-71 -71 -171 -128 -231 -131 -26 -1 -35 5 -52 33 -19 33 -19 35 -2 45 109 65
153 114 186 209 34 98 40 197 40 702 l0 493 -22 5 c-13 3 -47 9 -75 13 l-53 7
0 48 0 49 256 0 255 0 -3 -47 -3 -48 -65 -11 c-36 -7 -68 -12 -72 -13 -5 -1
-8 -75 -8 -166 l0 -165 94 0 c52 0 162 5 245 11 267 18 422 -13 517 -105 41
-40 56 -63 69 -109 23 -79 17 -202 -14 -279 -27 -69 -97 -149 -162 -187 l-49
-28 26 -24 c36 -33 100 -133 173 -268 83 -153 103 -177 162 -198 43 -16 48
-21 51 -51 l3 -34 52 70 c162 218 252 504 240 767 -24 542 -392 990 -921 1121
-113 28 -335 40 -437 24z"/>
<path d="M1473 1734 l-23 -5 0 -260 0 -259 123 0 c108 0 128 3 174 24 38 18
58 35 78 70 57 98 56 271 -3 345 -48 61 -108 84 -226 87 -55 1 -111 0 -123 -2z"/>
</g>
</svg>
